name C:\Users\antoi\Documents\MyRepositories\upper-imu-dc\Results\main_tracking\Case_79\ABD01_orientations_groundFrame.mot
datacolumns 13
datarows 32
range 3.01000000 3.32000000
endheader 
time	radius_imu_[0][0]	radius_imu_[0][1]	radius_imu_[0][2]	radius_imu_[1][0]	radius_imu_[1][1]	radius_imu_[1][2]	radius_imu_[2][0]	radius_imu_[2][1]	radius_imu_[2][2]	radius_imu_x	radius_imu_y	radius_imu_z	
          3.01000000	          0.57522757	         -0.02784748	          0.81751928	         -0.18525087	          0.96901865	          0.16335533	         -0.79674046	         -0.24541264	          0.55224747	         -0.28760002	          0.95709020	          0.04837347	
          3.02000000	          0.57774906	         -0.02755945	          0.81574904	         -0.18446926	          0.96916164	          0.16339155	         -0.79509566	         -0.24487994	          0.55484836	         -0.28638459	          0.95402302	          0.04766528	
          3.03000000	          0.58073594	         -0.02716194	          0.81363874	         -0.18381049	          0.96925972	          0.16355211	         -0.79306965	         -0.24453592	          0.55789131	         -0.28517096	          0.95038387	          0.04673752	
          3.04000000	          0.58350844	         -0.02690015	          0.81166144	         -0.18326424	          0.96930867	          0.16387471	         -0.79115872	         -0.24437079	          0.56066995	         -0.28436271	          0.94699082	          0.04606810	
          3.05000000	          0.58664191	         -0.02660608	          0.80940928	         -0.18283835	          0.96930369	          0.16437915	         -0.78893689	         -0.24442275	          0.56376955	         -0.28370642	          0.94314551	          0.04532213	
          3.06000000	          0.59052667	         -0.02615972	          0.80659402	         -0.18254319	          0.96924039	          0.16507893	         -0.78610192	         -0.24472176	          0.56758702	         -0.28303521	          0.93836721	          0.04427002	
          3.07000000	          0.59470051	         -0.02569724	          0.80353653	         -0.18239580	          0.96911351	          0.16598426	         -0.78298345	         -0.24527261	          0.57164523	         -0.28259164	          0.93321282	          0.04318352	
          3.08000000	          0.59915269	         -0.02521664	          0.80023757	         -0.18241020	          0.96891803	          0.16710589	         -0.77957846	         -0.24609344	          0.57593007	         -0.28239543	          0.92769128	          0.04206234	
          3.09000000	          0.60387589	         -0.02471505	          0.79669510	         -0.18259738	          0.96864931	          0.16845387	         -0.77588150	         -0.24719967	          0.58043106	         -0.28246220	          0.92180710	          0.04090454	
          3.10000000	          0.60886707	         -0.02418918	          0.79290339	         -0.18296503	          0.96830306	          0.17003816	         -0.77188386	         -0.24860423	          0.58514207	         -0.28280429	          0.91555908	          0.03970729	
          3.11000000	          0.61412465	         -0.02363492	          0.78885506	         -0.18351862	          0.96787515	          0.17186802	         -0.76757529	         -0.25031798	          0.59005854	         -0.28343111	          0.90894380	          0.03846655	
          3.12000000	          0.61965117	         -0.02304745	          0.78453887	         -0.18426020	          0.96736177	          0.17395222	         -0.76294207	         -0.25234899	          0.59518013	         -0.28434838	          0.90195212	          0.03717710	
          3.13000000	          0.62545165	         -0.02242134	          0.77994071	         -0.18518873	          0.96675946	          0.17629883	         -0.75796792	         -0.25470262	          0.60050912	         -0.28555862	          0.89457108	          0.03583289	
          3.14000000	          0.63153402	         -0.02175085	          0.77504302	         -0.18629939	          0.96606512	          0.17891541	         -0.75263359	         -0.25738121	          0.60605082	         -0.28706130	          0.88678317	          0.03442768	
          3.15000000	          0.63790642	         -0.02103021	          0.76982669	         -0.18758420	          0.96527602	          0.18180862	         -0.74691872	         -0.26038421	          0.61181083	         -0.28885362	          0.87856957	          0.03295561	
          3.16000000	          0.64457388	         -0.02025381	          0.76427370	         -0.18903291	          0.96438974	          0.18498378	         -0.74080434	         -0.26370859	          0.61779180	         -0.29093137	          0.86991435	          0.03141168	
          3.17000000	          0.65153707	         -0.01941649	          0.75836828	         -0.19063314	          0.96340417	          0.18844470	         -0.73427410	         -0.26734883	          0.62399211	         -0.29328930	          0.86080615	          0.02979223	
          3.18000000	          0.65879031	         -0.01851372	          0.75209878	         -0.19237107	          0.96231759	          0.19219321	         -0.72731609	         -0.27129707	          0.63040399	         -0.29592150	          0.85124087	          0.02809521	
          3.19000000	          0.66632133	         -0.01754183	          0.74545837	         -0.19423154	          0.96112865	          0.19622904	         -0.71992361	         -0.27554312	          0.63701334	         -0.29882147	          0.84122224	          0.02632031	
          3.20000000	          0.67410992	         -0.01649793	          0.73844678	         -0.19619892	          0.95983643	          0.20054926	         -0.71209677	         -0.28007471	          0.64379838	         -0.30198216	          0.83076402	          0.02446877	
          3.21000000	          0.68212869	         -0.01537993	          0.73107038	         -0.19825739	          0.95844051	          0.20514825	         -0.70384263	         -0.28487761	          0.65073058	         -0.30539583	          0.81988942	          0.02254315	
          3.22000000	          0.69034362	         -0.01418648	          0.72334254	         -0.20039154	          0.95694088	          0.21001757	         -0.69517546	         -0.28993601	          0.65777518	         -0.30905397	          0.80863096	          0.02054698	
          3.23000000	          0.69871557	         -0.01291687	          0.71528295	         -0.20258666	          0.95533802	          0.21514623	         -0.68611602	         -0.29523281	          0.66489277	         -0.31294734	          0.79702892	          0.01848448	
          3.24000000	          0.70720168	         -0.01157108	          0.70691718	         -0.20482926	          0.95363275	          0.22052110	         -0.67669103	         -0.30075022	          0.67204059	         -0.31706621	          0.78513006	          0.01636032	
          3.25000000	          0.71575715	         -0.01014974	          0.69827551	         -0.20710743	          0.95182603	          0.22612767	         -0.66693194	         -0.30647054	          0.67917420	         -0.32140103	          0.77298558	          0.01417947	
          3.26000000	          0.72433712	         -0.00865428	          0.68939165	         -0.20941103	          0.94991883	          0.23195095	         -0.65687347	         -0.31237690	          0.68624917	         -0.32594299	          0.76064890	          0.01194729	
          3.27000000	          0.73289810	         -0.00708701	          0.68030151	         -0.21173183	          0.94791184	          0.23797643	         -0.64655240	         -0.31845396	          0.69322224	         -0.33068484	          0.74817393	          0.00966955	
          3.28000000	          0.74139952	         -0.00545134	          0.67104175	         -0.21406329	          0.94580531	          0.24419096	         -0.63600602	         -0.32468846	          0.70005267	         -0.33562141	          0.73561297	          0.00735264	
          3.29000000	          0.74980475	         -0.00375183	          0.66164852	         -0.21640027	          0.94359888	          0.25058346	         -0.62527095	         -0.33106959	          0.70670302	         -0.34075004	          0.72301521	          0.00500370	
          3.30000000	          0.75808199	         -0.00199421	          0.65215621	         -0.21873865	          0.94129148	          0.25714539	         -0.61438188	         -0.33758906	          0.71313991	         -0.34607068	          0.71042525	          0.00263059	
          3.31000000	          0.76620485	         -0.00018528	          0.64259637	         -0.22107471	          0.93888132	          0.26387088	         -0.60337062	         -0.34424096	          0.71933446	         -0.35158561	          0.69788208	          0.00024181	
          3.32000000	          0.77415251	          0.00166730	          0.63299692	         -0.22340468	          0.93636596	          0.27075659	         -0.59226534	         -0.35102137	          0.72526255	         -0.35729889	          0.68541834	         -0.00215370	
